<?xml version="1.0" encoding="UTF-8" standalone="no"?>
<svg width="40px" height="40px" viewBox="0 0 40 40" version="1.1" xmlns="http://www.w3.org/2000/svg" xmlns:xlink="http://www.w3.org/1999/xlink" xmlns:sketch="http://www.bohemiancoding.com/sketch/ns">
    <!-- Generator: Sketch 3.3.2 (12043) - http://www.bohemiancoding.com/sketch -->
    <title>Group</title>
    <desc>Created with Sketch.</desc>
    <defs></defs>
    <g id="Page-1" stroke="none" stroke-width="1" fill="none" fill-rule="evenodd" sketch:type="MSPage">
        <g id="Group" sketch:type="MSLayerGroup" transform="translate(1.000000, 1.000000)" stroke="#F49577" stroke-width="2">
            <path d="M3.61000391,9.72996044 C3.21076966,11.1182665 2.99689594,12.5850386 2.99689594,14.1017635 C2.99689594,22.8213338 10.0655043,29.8899422 18.7850746,29.8899422 C22.6797201,29.8899422 26.2449966,28.4797458 28.9981463,26.1421106 C29.3973806,24.7538046 29.6112543,23.2870325 29.6112543,21.7703075 C29.6112543,13.0507372 22.5426459,5.98212879 13.8230756,5.98212879 C9.92843012,5.98212879 6.36315365,7.39232524 3.61000391,9.72996044 L3.61000391,9.72996044 Z" id="Oval-1-Copy-15" sketch:type="MSShapeGroup"></path>
            <path d="M33.7713478,9.72996044 C34.1705821,11.1182665 34.3844558,12.5850386 34.3844558,14.1017635 C34.3844558,22.8213338 27.3158474,29.8899422 18.5962771,29.8899422 C14.7016316,29.8899422 11.1363552,28.4797458 8.38320542,26.1421106 C7.98397117,24.7538046 7.77009744,23.2870325 7.77009744,21.7703075 C7.77009744,13.0507372 14.8387058,5.98212879 23.5582761,5.98212879 C27.4529216,5.98212879 31.0181981,7.39232524 33.7713478,9.72996044 L33.7713478,9.72996044 Z" id="Oval-1-Copy-12" sketch:type="MSShapeGroup"></path>
            <path d="M18.6906759,36.7252143 C12.3589709,34.7194947 7.77009744,28.7959443 7.77009744,21.8006052 C7.77009744,14.8052661 12.3589709,8.88171577 18.6906759,6.87599615 C25.0223809,8.88171577 29.6112543,14.8052661 29.6112543,21.8006052 C29.6112543,28.7959443 25.0223809,34.7194947 18.6906759,36.7252143 L18.6906759,36.7252143 Z" id="Oval-1-Copy-13" sketch:type="MSShapeGroup"></path>
            <path d="M19,38 C29.4934102,38 38,29.4934102 38,19 C38,8.50658975 29.4934102,0 19,0 C8.50658975,0 0,8.50658975 0,19 C0,29.4934102 8.50658975,38 19,38 Z" id="Oval-1-Copy-14" sketch:type="MSShapeGroup"></path>
        </g>
    </g>
</svg>