<?xml version="1.0" encoding="utf-8"?>
<!-- Generator: Adobe Illustrator 18.1.1, SVG Export Plug-In . SVG Version: 6.00 Build 0)  -->
<svg version="1.1" id="Layer_1" xmlns="http://www.w3.org/2000/svg" xmlns:xlink="http://www.w3.org/1999/xlink" x="0px" y="0px"
	 viewBox="0 0 41.1 41.1" enable-background="new 0 0 41.1 41.1" xml:space="preserve">
<path d="M20.6,0C9.2,0,0,9.2,0,20.6c0,11.3,9.2,20.6,20.6,20.6c11.3,0,20.6-9.2,20.6-20.6C41.1,9.2,31.9,0,20.6,0z M20.6,2
	C27,2,32.7,5.3,36,10.3c-3-2.4-6.7-3.8-10.6-3.8c-1.7,0-3.3,0.3-4.9,0.7c-1.5-0.5-3.2-0.7-4.9-0.7c-3.9,0-7.7,1.4-10.7,3.8
	C8.4,5.3,14.1,2,20.6,2z M32.5,23.4C32.5,23.3,32.5,23.3,32.5,23.4c0-0.5,0-0.9-0.1-1.3c0-0.1,0-0.1,0-0.2c0-0.4-0.1-0.7-0.1-1.1
	c0-0.1,0-0.2,0-0.2c-0.1-0.4-0.1-0.7-0.2-1c0-0.1,0-0.1-0.1-0.2c-0.1-0.4-0.2-0.7-0.3-1.1c0,0,0-0.1,0-0.1c-1.3-4-4.2-7.4-7.8-9.4
	c0.5-0.1,1.1-0.1,1.6-0.1c3.4,0,6.7,1.2,9.3,3.3c0.3,1.2,0.5,2.5,0.5,3.8c0,3.2-1,6.2-2.8,8.6c0-0.2,0-0.5,0-0.7
	C32.5,23.5,32.5,23.4,32.5,23.4C32.5,23.4,32.5,23.4,32.5,23.4z M12.5,30.4c2.5,1.3,5.2,2.1,8,2.1c0,0,0.1,0,0.1,0c0,0,0.1,0,0.1,0
	c2.8,0,5.6-0.7,8-2.1c-1.7,3.2-4.6,5.6-8.1,6.8C17,36,14.2,33.5,12.5,30.4z M20.6,30.5c-3.6,0-6.9-1.4-9.5-3.5
	c-0.1-0.5-0.2-1.1-0.3-1.6c0-0.1,0-0.2,0-0.3c0-0.2,0-0.4-0.1-0.6c0-0.3,0-0.6,0-0.9c0,0,0-0.1,0-0.1c0-6.3,4-11.8,9.9-13.9
	c5.9,2,9.9,7.6,9.9,13.9c0,0,0,0.1,0,0.1c0,0.3,0,0.6,0,0.9c0,0.2,0,0.4-0.1,0.6c0,0.1,0,0.2,0,0.4c0,0.3-0.1,0.5-0.1,0.7
	c0,0,0,0,0,0c-0.1,0.3-0.1,0.6-0.2,0.9C27.5,29.1,24.2,30.4,20.6,30.5z M8.7,23.4C8.7,23.4,8.7,23.4,8.7,23.4c0,0.1,0,0.1,0,0.2
	c0,0.2,0,0.5,0,0.7c-1.8-2.4-2.8-5.4-2.8-8.6c0-1.3,0.2-2.6,0.5-3.8c2.6-2.1,5.9-3.3,9.3-3.3c0.6,0,1.1,0,1.6,0.1
	c-3.7,2-6.5,5.4-7.8,9.4c0,0,0,0.1,0,0.1c-0.1,0.4-0.2,0.7-0.3,1.1c0,0.1,0,0.1-0.1,0.2c-0.1,0.3-0.2,0.7-0.2,1c0,0.1,0,0.2,0,0.2
	c-0.1,0.4-0.1,0.7-0.1,1.1c0,0.1,0,0.1,0,0.2C8.7,22.5,8.7,22.9,8.7,23.4C8.7,23.3,8.7,23.3,8.7,23.4z M2,20.6
	c0-3.3,0.9-6.5,2.5-9.2c-0.4,1.4-0.6,2.8-0.6,4.3c0,4.9,2.1,9.3,5.4,12.3l0.1,0.3l0,0c1.5,5,5.3,9,10.5,10.8C10,38.7,2,30.6,2,20.6z
	 M21.3,39.1c5.1-1.8,8.9-5.8,10.4-10.8l0,0l0.1-0.3c3.3-3.1,5.4-7.5,5.4-12.3c0-1.4-0.2-2.8-0.5-4.2c1.5,2.7,2.4,5.8,2.4,9.1
	C39.1,30.5,31.2,38.7,21.3,39.1z"/>
</svg>
