<?xml version="1.0" encoding="UTF-8" standalone="no"?>
<svg width="38px" height="38px" viewBox="0 0 38 38" version="1.1" xmlns="http://www.w3.org/2000/svg" xmlns:xlink="http://www.w3.org/1999/xlink" xmlns:sketch="http://www.bohemiancoding.com/sketch/ns">
    <!-- Generator: Sketch 3.3.2 (12043) - http://www.bohemiancoding.com/sketch -->
    <title>Group</title>
    <desc>Created with Sketch.</desc>
    <defs></defs>
    <g id="Page-1" stroke="none" stroke-width="1" fill="none" fill-rule="evenodd" sketch:type="MSPage">
        <g id="Group" sketch:type="MSLayerGroup" stroke="#F49577">
            <path d="M28.5827902,25.8168473 C28.9758824,24.4498999 29.1864658,23.0056935 29.1864658,21.5123027 C29.1864658,12.9268797 22.2266052,5.96701911 13.6411821,5.96701911 C9.80645427,5.96701911 6.29602821,7.35552023 3.58523462,9.65719182 C3.19214244,11.0241393 2.98155908,12.4683457 2.98155908,13.9617364 C2.98155908,22.5471595 9.94141962,29.50702 18.5268427,29.50702 C22.3615706,29.50702 25.8719966,28.1185189 28.5827902,25.8168473 Z" id="Oval-1-Copy-6" sketch:type="MSShapeGroup" transform="translate(16.084012, 17.737020) rotate(-180.000000) translate(-16.084012, -17.737020) "></path>
            <path d="M33.2825578,25.8168473 C33.67565,24.4498999 33.8862334,23.0056935 33.8862334,21.5123027 C33.8862334,12.9268797 26.9263728,5.96701911 18.3409498,5.96701911 C14.5062219,5.96701911 10.9957959,7.35552023 8.28500226,9.65719182 C7.89191007,11.0241393 7.68132671,12.4683457 7.68132671,13.9617364 C7.68132671,22.5471595 14.6411873,29.50702 23.2266103,29.50702 C27.0613382,29.50702 30.5717643,28.1185189 33.2825578,25.8168473 Z" id="Oval-1-Copy-7" sketch:type="MSShapeGroup" transform="translate(20.783780, 17.737020) scale(-1, 1) rotate(-180.000000) translate(-20.783780, -17.737020) "></path>
            <path d="M18.4338962,6.84713467 C12.1996021,8.82199706 7.68132671,14.6544158 7.68132671,21.5421344 C7.68132671,28.4298529 12.1996021,34.2622717 18.4338962,36.2371341 C24.6681904,34.2622717 29.1864658,28.4298529 29.1864658,21.5421344 C29.1864658,14.6544158 24.6681904,8.82199706 18.4338962,6.84713467 Z" id="Oval-1-Copy-8" sketch:type="MSShapeGroup" transform="translate(18.433896, 21.542134) scale(-1, 1) rotate(-180.000000) translate(-18.433896, -21.542134) "></path>
            <path d="M18.6881344,36.9409163 C28.6292599,36.9409163 36.6881344,28.8820418 36.6881344,18.9409163 C36.6881344,8.99979077 28.6292599,0.940916265 18.6881344,0.940916265 C8.74700893,0.940916265 0.688134423,8.99979077 0.688134423,18.9409163 C0.688134423,28.8820418 8.74700893,36.9409163 18.6881344,36.9409163 Z" id="Oval-1-Copy-4" sketch:type="MSShapeGroup"></path>
        </g>
    </g>
</svg>