<?xml version="1.0" encoding="UTF-8" standalone="no"?>
<svg width="41px" height="38px" viewBox="0 0 41 38" version="1.1" xmlns="http://www.w3.org/2000/svg" xmlns:xlink="http://www.w3.org/1999/xlink" xmlns:sketch="http://www.bohemiancoding.com/sketch/ns">
    <!-- Generator: Sketch 3.3.2 (12043) - http://www.bohemiancoding.com/sketch -->
    <title>Shape</title>
    <desc>Created with Sketch.</desc>
    <defs></defs>
    <g id="Page-1" stroke="none" stroke-width="1" fill="none" fill-rule="evenodd" sketch:type="MSPage">
        <path d="M21.4761905,15 L27.308722,15 C27.8589205,15 28.3095238,14.5522847 28.3095238,14 C28.3095238,13.4438648 27.8614496,13 27.308722,13 L13.691278,13 C13.1410795,13 12.6904762,13.4477153 12.6904762,14 C12.6904762,14.5561352 13.1385504,15 13.691278,15 L19.5238095,15 L19.5238095,25.0179896 C19.5238095,25.5729136 19.9608649,26 20.5,26 C21.0428939,26 21.4761905,25.560339 21.4761905,25.0179896 L21.4761905,15 Z M20.2854526,38 C29.1062312,38 36.2799581,31.0820898 36.2799581,22.5172414 C36.2799581,13.952393 29.1062312,7.03448276 20.2854526,7.03448276 C11.464674,7.03448276 4.29094715,13.952393 4.29094715,22.5172414 C4.29094715,31.0820898 11.464674,38 20.2854526,38 L20.2854526,38 Z M20.2854526,36 C12.5174585,36 6.2433281,29.9496064 6.2433281,22.5172414 C6.2433281,15.0848763 12.5174585,9.03448276 20.2854526,9.03448276 C28.0534468,9.03448276 34.3275772,15.0848763 34.3275772,22.5172414 C34.3275772,29.9496064 28.0534468,36 20.2854526,36 L20.2854526,36 Z M25.0054945,30.9655172 C33.8262731,30.9655172 41,24.047607 41,15.4827586 C41,6.91791023 33.8262731,0 25.0054945,0 C16.1847159,0 9.01098901,6.91791023 9.01098901,15.4827586 C9.01098901,24.047607 16.1847159,30.9655172 25.0054945,30.9655172 L25.0054945,30.9655172 Z M25.0054945,28.9655172 C17.2375004,28.9655172 10.96337,22.9151237 10.96337,15.4827586 C10.96337,8.05039357 17.2375004,2 25.0054945,2 C32.7734886,2 39.047619,8.05039357 39.047619,15.4827586 C39.047619,22.9151237 32.7734886,28.9655172 25.0054945,28.9655172 L25.0054945,28.9655172 Z M15.9945055,30.9655172 C24.8152841,30.9655172 31.989011,24.047607 31.989011,15.4827586 C31.989011,6.91791023 24.8152841,0 15.9945055,0 C7.1737269,0 0,6.91791023 0,15.4827586 C0,24.047607 7.1737269,30.9655172 15.9945055,30.9655172 L15.9945055,30.9655172 Z M15.9945055,28.9655172 C8.22651138,28.9655172 1.95238095,22.9151237 1.95238095,15.4827586 C1.95238095,8.05039357 8.22651138,2 15.9945055,2 C23.7624996,2 30.03663,8.05039357 30.03663,15.4827586 C30.03663,22.9151237 23.7624996,28.9655172 15.9945055,28.9655172 L15.9945055,28.9655172 Z" id="Shape" fill="#F49577" sketch:type="MSShapeGroup"></path>
    </g>
</svg>