<?xml version="1.0" encoding="UTF-8" standalone="no"?>
<svg width="71px" height="71px" viewBox="0 0 71 71" version="1.1" xmlns="http://www.w3.org/2000/svg" xmlns:xlink="http://www.w3.org/1999/xlink" xmlns:sketch="http://www.bohemiancoding.com/sketch/ns">
    <!-- Generator: Sketch 3.3.2 (12043) - http://www.bohemiancoding.com/sketch -->
    <title>Slice 1</title>
    <desc>Created with Sketch.</desc>
    <defs></defs>
    <g id="Page-1" stroke="none" stroke-width="1" fill="none" fill-rule="evenodd" sketch:type="MSPage">
        <g id="logo" sketch:type="MSLayerGroup" fill="#FF805C">
            <path d="M35.5,0 C15.8543689,0 0,15.8543689 0,35.5 C0,54.973301 15.8543689,71 35.5,71 C54.973301,71 71,55.1456311 71,35.5 C70.8276699,15.8543689 54.973301,0 35.5,0 L35.5,0 Z M35.5,3.44660194 C46.5291262,3.44660194 56.3519417,9.13349515 62.038835,17.75 C56.868932,13.6140777 50.4927184,11.2014563 43.7718447,11.2014563 C40.842233,11.2014563 38.0849515,11.7184466 35.3276699,12.407767 C32.7427184,11.5461165 29.8131068,11.2014563 26.8834951,11.2014563 C20.1626214,11.2014563 13.6140777,13.6140777 8.44417476,17.75 C14.4757282,9.13349515 24.2985437,3.44660194 35.5,3.44660194 L35.5,3.44660194 Z M56.0072816,40.3252427 C56.0072816,40.1529126 56.0072816,40.1529126 56.0072816,40.3252427 C56.0072816,39.4635922 56.0072816,38.7742718 55.8349515,38.0849515 L55.8349515,37.7402913 C55.8349515,37.0509709 55.6626214,36.5339806 55.6626214,35.8446602 L55.6626214,35.5 C55.4902913,34.8106796 55.4902913,34.2936893 55.3179612,33.776699 C55.3179612,33.6043689 55.3179612,33.6043689 55.1456311,33.4320388 C54.973301,32.7427184 54.8009709,32.2257282 54.6286408,31.5364078 L54.6286408,31.3640777 C52.3883495,24.4708738 47.3907767,18.6116505 41.1868932,15.1650485 C42.0485437,14.9927184 43.0825243,14.9927184 43.9441748,14.9927184 C49.8033981,14.9927184 55.4902913,17.0606796 59.9708738,20.6796117 C60.4878641,22.7475728 60.8325243,24.9878641 60.8325243,27.2281553 C60.8325243,32.7427184 59.1092233,37.9126214 56.0072816,42.0485437 L56.0072816,40.842233 L56.0072816,40.3252427 L56.0072816,40.3252427 L56.0072816,40.3252427 Z M21.5412621,52.3883495 C25.8495146,54.6286408 30.5024272,56.0072816 35.3276699,56.0072816 L35.5,56.0072816 L35.6723301,56.0072816 C40.4975728,56.0072816 45.3228155,54.8009709 49.4587379,52.3883495 C46.5291262,57.9029126 41.5315534,62.038835 35.5,64.1067961 C29.2961165,62.038835 24.4708738,57.7305825 21.5412621,52.3883495 L21.5412621,52.3883495 Z M35.5,52.5606796 C29.2961165,52.5606796 23.6092233,50.1480583 19.1286408,46.5291262 C18.9563107,45.6674757 18.7839806,44.6334951 18.6116505,43.7718447 L18.6116505,43.2548544 C18.6116505,42.9101942 18.6116505,42.565534 18.4393204,42.2208738 L18.4393204,40.6699029 L18.4393204,40.4975728 C18.4393204,29.6407767 25.3325243,20.1626214 35.5,16.5436893 C45.6674757,19.9902913 52.5606796,29.6407767 52.5606796,40.4975728 L52.5606796,40.6699029 L52.5606796,42.2208738 C52.5606796,42.565534 52.5606796,42.9101942 52.3883495,43.2548544 L52.3883495,43.9441748 C52.3883495,44.461165 52.2160194,44.8058252 52.2160194,45.1504854 L52.2160194,45.1504854 C52.0436893,45.6674757 52.0436893,46.184466 51.8713592,46.7014563 C47.3907767,50.1480583 41.7038835,52.3883495 35.5,52.5606796 L35.5,52.5606796 Z M14.9927184,40.3252427 L14.9927184,40.3252427 L14.9927184,40.6699029 L14.9927184,41.8762136 C11.8907767,37.7402913 10.1674757,32.5703883 10.1674757,27.0558252 C10.1674757,24.815534 10.5121359,22.5752427 11.0291262,20.5072816 C15.5097087,16.8883495 21.1966019,14.8203883 27.0558252,14.8203883 C28.0898058,14.8203883 28.9514563,14.8203883 29.8131068,14.9927184 C23.4368932,18.4393204 18.6116505,24.2985437 16.3713592,31.1917476 L16.3713592,31.3640777 C16.1990291,32.0533981 16.026699,32.5703883 15.8543689,33.2597087 C15.8543689,33.4320388 15.8543689,33.4320388 15.6820388,33.6043689 C15.5097087,34.1213592 15.3373786,34.8106796 15.3373786,35.3276699 L15.3373786,35.6723301 C15.1650485,36.3616505 15.1650485,36.8786408 15.1650485,37.5679612 L15.1650485,37.9126214 C14.9927184,38.7742718 14.9927184,39.4635922 14.9927184,40.3252427 C14.9927184,40.1529126 14.9927184,40.1529126 14.9927184,40.3252427 L14.9927184,40.3252427 Z M3.44660194,35.5 C3.44660194,29.8131068 4.99757282,24.2985437 7.75485437,19.6456311 C7.06553398,22.0582524 6.72087379,24.4708738 6.72087379,27.0558252 C6.72087379,35.5 10.3398058,43.0825243 16.026699,48.2524272 L16.1990291,48.7694175 C18.7839806,57.3859223 25.3325243,64.2791262 34.2936893,67.381068 C17.2330097,66.6917476 3.44660194,52.7330097 3.44660194,35.5 L3.44660194,35.5 Z M36.7063107,67.381068 C45.4951456,64.2791262 52.0436893,57.3859223 54.6286408,48.7694175 L54.6286408,48.7694175 L54.8009709,48.2524272 C60.4878641,42.9101942 64.1067961,35.3276699 64.1067961,27.0558252 C64.1067961,24.6432039 63.7621359,22.2305825 63.2451456,19.8179612 C65.8300971,24.4708738 67.381068,29.8131068 67.381068,35.5 C67.381068,52.5606796 53.7669903,66.6917476 36.7063107,67.381068 L36.7063107,67.381068 Z" id="Shape" sketch:type="MSShapeGroup"></path>
        </g>
    </g>
</svg>